# xmcd
#
# Track frame offsets:
#	150
#	15375
#	30525
#	47775
#	64422
#
# Disc length: 1094 seconds
#
# Revision: 1
# Processed by: cddbd v1.4PL0 Copyright (c) Steve Scherf et al.
# Submitted via: audiograbber 1.81.03
#
DISCID=39044405
DTITLE=Zed - Renegade Fighter E.P
DYEAR=1900
DGENRE=
TTITLE0=Renegade Fighter (Album Berdion)
TTITLE1=Renegade Fighter (Acoustic Version)
TTITLE2=I'm Cold
TTITLE3=Oh! Daisy
TTITLE4=Cavalier
EXTD=
EXTT0=
EXTT1=
EXTT2=
EXTT3=
EXTT4=
PLAYORDER=
